<?xml version="1.0" encoding="utf-8"?>
<!-- Svg Vector Icons : http://www.onlinewebfonts.com/icon -->
<!DOCTYPE svg PUBLIC "-//W3C//DTD SVG 1.1//EN" "http://www.w3.org/Graphics/SVG/1.1/DTD/svg11.dtd">
<svg version="1.1" xmlns="http://www.w3.org/2000/svg" xmlns:xlink="http://www.w3.org/1999/xlink" x="0px" y="0px" viewBox="0 0 256 256" enable-background="new 0 0 256 256" xml:space="preserve">
<metadata> Svg Vector Icons : http://www.onlinewebfonts.com/icon </metadata>
<g><g><g><g><g><g><path fill="#000000" d="M219.8,10H36.2C21.8,10,10,21.8,10,36.2v183.6c0,14.5,11.8,26.2,26.2,26.2h183.6c14.5,0,26.2-11.8,26.2-26.2V36.2C246,21.8,234.2,10,219.8,10z M219.8,219.8H36.2V36.2h183.6V219.8L219.8,219.8z"/><path fill="#000000" d="M75.6,141.1h39.3v39.3c0,7.2,5.9,13.1,13.1,13.1c7.2,0,13.1-5.9,13.1-13.1v-39.3h39.3c7.2,0,13.1-5.9,13.1-13.1c0-7.2-5.9-13.1-13.1-13.1h-39.3V75.6c0-7.2-5.9-13.1-13.1-13.1c-7.2,0-13.1,5.9-13.1,13.1v39.3H75.6c-7.2,0-13.1,5.9-13.1,13.1C62.4,135.2,68.3,141.1,75.6,141.1z"/></g></g></g></g><g></g><g></g><g></g><g></g><g></g><g></g><g></g><g></g><g></g><g></g><g></g><g></g><g></g><g></g><g></g></g></g>
</svg>